<!--
ISC License

Copyright (c) for portions of Lucide are held by Cole Bemis 2013-2022 as part of Feather (MIT). All other copyright (c) for Lucide are held by Lucide Contributors 2022.

Permission to use, copy, modify, and/or distribute this software for any
purpose with or without fee is hereby granted, provided that the above
copyright notice and this permission notice appear in all copies.

THE SOFTWARE IS PROVIDED "AS IS" AND THE AUTHOR DISCLAIMS ALL WARRANTIES
WITH REGARD TO THIS SOFTWARE INCLUDING ALL IMPLIED WARRANTIES OF
MERCHANTABILITY AND FITNESS. IN NO EVENT SHALL THE AUTHOR BE LIABLE FOR
ANY SPECIAL, DIRECT, INDIRECT, OR CONSEQUENTIAL DAMAGES OR ANY DAMAGES
WHATSOEVER RESULTING FROM LOSS OF USE, DATA OR PROFITS, WHETHER IN AN
ACTION OF CONTRACT, NEGLIGENCE OR OTHER TORTIOUS ACTION, ARISING OUT OF
OR IN CONNECTION WITH THE USE OR PERFORMANCE OF THIS SOFTWARE.
-->
<svg xmlns="http://www.w3.org/2000/svg" width="784" height="144" viewBox="0 0 784 144" id="Lucide icons / Photography" fill="none" stroke="#000000" stroke-width="2" stroke-linecap="round" stroke-linejoin="round">
  <g id="aperture" transform="translate(0 0)">
    <rect id="aperture bounds" width="24" height="24" fill="none" stroke="none" />
    <circle cx="12" cy="12" r="10" />
    <path d="m14.31 8 5.74 9.94" />
    <path d="M9.69 8h11.48" />
    <path d="m7.38 12 5.74-9.94" />
    <path d="M9.69 16 3.95 6.06" />
    <path d="M14.31 16H2.83" />
    <path d="m16.62 12-5.74 9.94" />
  </g>
  <g id="backpack" transform="translate(40 0)">
    <rect id="backpack bounds" width="24" height="24" fill="none" stroke="none" />
    <path d="M4 10a4 4 0 0 1 4-4h8a4 4 0 0 1 4 4v10a2 2 0 0 1-2 2H6a2 2 0 0 1-2-2z" />
    <path d="M8 10h8" />
    <path d="M8 18h8" />
    <path d="M8 22v-6a2 2 0 0 1 2-2h4a2 2 0 0 1 2 2v6" />
    <path d="M9 6V4a2 2 0 0 1 2-2h2a2 2 0 0 1 2 2v2" />
  </g>
  <g id="binoculars" transform="translate(80 0)">
    <rect id="binoculars bounds" width="24" height="24" fill="none" stroke="none" />
    <path d="M10 10h4" />
    <path d="M19 7V4a1 1 0 0 0-1-1h-2a1 1 0 0 0-1 1v3" />
    <path d="M20 21a2 2 0 0 0 2-2v-3.851c0-1.39-2-2.962-2-4.829V8a1 1 0 0 0-1-1h-4a1 1 0 0 0-1 1v11a2 2 0 0 0 2 2z" />
    <path d="M 22 16 L 2 16" />
    <path d="M4 21a2 2 0 0 1-2-2v-3.851c0-1.39 2-2.962 2-4.829V8a1 1 0 0 1 1-1h4a1 1 0 0 1 1 1v11a2 2 0 0 1-2 2z" />
    <path d="M9 7V4a1 1 0 0 0-1-1H6a1 1 0 0 0-1 1v3" />
  </g>
  <g id="blend" transform="translate(120 0)">
    <rect id="blend bounds" width="24" height="24" fill="none" stroke="none" />
    <circle cx="9" cy="9" r="7" />
    <circle cx="15" cy="15" r="7" />
  </g>
  <g id="book-image" transform="translate(160 0)">
    <rect id="book-image bounds" width="24" height="24" fill="none" stroke="none" />
    <path d="m20 13.7-2.1-2.1a2 2 0 0 0-2.8 0L9.7 17" />
    <path d="M4 19.5v-15A2.5 2.5 0 0 1 6.5 2H19a1 1 0 0 1 1 1v18a1 1 0 0 1-1 1H6.5a1 1 0 0 1 0-5H20" />
    <circle cx="10" cy="8" r="2" />
  </g>
  <g id="camera" transform="translate(200 0)">
    <rect id="camera bounds" width="24" height="24" fill="none" stroke="none" />
    <path d="M14.5 4h-5L7 7H4a2 2 0 0 0-2 2v9a2 2 0 0 0 2 2h16a2 2 0 0 0 2-2V9a2 2 0 0 0-2-2h-3l-2.5-3z" />
    <circle cx="12" cy="13" r="3" />
  </g>
  <g id="camera-off" transform="translate(240 0)">
    <rect id="camera-off bounds" width="24" height="24" fill="none" stroke="none" />
    <line x1="2" x2="22" y1="2" y2="22" />
    <path d="M7 7H4a2 2 0 0 0-2 2v9a2 2 0 0 0 2 2h16" />
    <path d="M9.5 4h5L17 7h3a2 2 0 0 1 2 2v7.5" />
    <path d="M14.121 15.121A3 3 0 1 1 9.88 10.88" />
  </g>
  <g id="cctv" transform="translate(280 0)">
    <rect id="cctv bounds" width="24" height="24" fill="none" stroke="none" />
    <path d="M16.75 12h3.632a1 1 0 0 1 .894 1.447l-2.034 4.069a1 1 0 0 1-1.708.134l-2.124-2.97" />
    <path d="M17.106 9.053a1 1 0 0 1 .447 1.341l-3.106 6.211a1 1 0 0 1-1.342.447L3.61 12.3a2.92 2.92 0 0 1-1.3-3.91L3.69 5.6a2.92 2.92 0 0 1 3.92-1.3z" />
    <path d="M2 19h3.76a2 2 0 0 0 1.8-1.1L9 15" />
    <path d="M2 21v-4" />
    <path d="M7 9h.01" />
  </g>
  <g id="contrast" transform="translate(320 0)">
    <rect id="contrast bounds" width="24" height="24" fill="none" stroke="none" />
    <circle cx="12" cy="12" r="10" />
    <path d="M12 18a6 6 0 0 0 0-12v12z" />
  </g>
  <g id="crop" transform="translate(360 0)">
    <rect id="crop bounds" width="24" height="24" fill="none" stroke="none" />
    <path d="M6 2v14a2 2 0 0 0 2 2h14" />
    <path d="M18 22V8a2 2 0 0 0-2-2H2" />
  </g>
  <g id="crosshair" transform="translate(400 0)">
    <rect id="crosshair bounds" width="24" height="24" fill="none" stroke="none" />
    <circle cx="12" cy="12" r="10" />
    <line x1="22" x2="18" y1="12" y2="12" />
    <line x1="6" x2="2" y1="12" y2="12" />
    <line x1="12" x2="12" y1="6" y2="2" />
    <line x1="12" x2="12" y1="22" y2="18" />
  </g>
  <g id="database-backup" transform="translate(440 0)">
    <rect id="database-backup bounds" width="24" height="24" fill="none" stroke="none" />
    <ellipse cx="12" cy="5" rx="9" ry="3" />
    <path d="M3 12a9 3 0 0 0 5 2.69" />
    <path d="M21 9.3V5" />
    <path d="M3 5v14a9 3 0 0 0 6.47 2.88" />
    <path d="M12 12v4h4" />
    <path d="M13 20a5 5 0 0 0 9-3 4.5 4.5 0 0 0-4.5-4.5c-1.33 0-2.54.54-3.41 1.41L12 16" />
  </g>
  <g id="diamond-minus" transform="translate(480 0)">
    <rect id="diamond-minus bounds" width="24" height="24" fill="none" stroke="none" />
    <path d="M2.7 10.3a2.41 2.41 0 0 0 0 3.41l7.59 7.59a2.41 2.41 0 0 0 3.41 0l7.59-7.59a2.41 2.41 0 0 0 0-3.41L13.7 2.71a2.41 2.41 0 0 0-3.41 0z" />
    <path d="M8 12h8" />
  </g>
  <g id="diamond-plus" transform="translate(520 0)">
    <rect id="diamond-plus bounds" width="24" height="24" fill="none" stroke="none" />
    <path d="M12 8v8" />
    <path d="M2.7 10.3a2.41 2.41 0 0 0 0 3.41l7.59 7.59a2.41 2.41 0 0 0 3.41 0l7.59-7.59a2.41 2.41 0 0 0 0-3.41L13.7 2.71a2.41 2.41 0 0 0-3.41 0z" />
    <path d="M8 12h8" />
  </g>
  <g id="eclipse" transform="translate(560 0)">
    <rect id="eclipse bounds" width="24" height="24" fill="none" stroke="none" />
    <circle cx="12" cy="12" r="10" />
    <path d="M12 2a7 7 0 1 0 10 10" />
  </g>
  <g id="eye" transform="translate(600 0)">
    <rect id="eye bounds" width="24" height="24" fill="none" stroke="none" />
    <path d="M2.062 12.348a1 1 0 0 1 0-.696 10.75 10.75 0 0 1 19.876 0 1 1 0 0 1 0 .696 10.75 10.75 0 0 1-19.876 0" />
    <circle cx="12" cy="12" r="3" />
  </g>
  <g id="eye-closed" transform="translate(640 0)">
    <rect id="eye-closed bounds" width="24" height="24" fill="none" stroke="none" />
    <path d="m15 18-.722-3.25" />
    <path d="M2 8a10.645 10.645 0 0 0 20 0" />
    <path d="m20 15-1.726-2.05" />
    <path d="m4 15 1.726-2.05" />
    <path d="m9 18 .722-3.25" />
  </g>
  <g id="eye-off" transform="translate(680 0)">
    <rect id="eye-off bounds" width="24" height="24" fill="none" stroke="none" />
    <path d="M10.733 5.076a10.744 10.744 0 0 1 11.205 6.575 1 1 0 0 1 0 .696 10.747 10.747 0 0 1-1.444 2.49" />
    <path d="M14.084 14.158a3 3 0 0 1-4.242-4.242" />
    <path d="M17.479 17.499a10.75 10.75 0 0 1-15.417-5.151 1 1 0 0 1 0-.696 10.75 10.75 0 0 1 4.446-5.143" />
    <path d="m2 2 20 20" />
  </g>
  <g id="film" transform="translate(720 0)">
    <rect id="film bounds" width="24" height="24" fill="none" stroke="none" />
    <rect width="18" height="18" x="3" y="3" rx="2" />
    <path d="M7 3v18" />
    <path d="M3 7.5h4" />
    <path d="M3 12h18" />
    <path d="M3 16.5h4" />
    <path d="M17 3v18" />
    <path d="M17 7.5h4" />
    <path d="M17 16.5h4" />
  </g>
  <g id="flashlight" transform="translate(760 0)">
    <rect id="flashlight bounds" width="24" height="24" fill="none" stroke="none" />
    <path d="M18 6c0 2-2 2-2 4v10a2 2 0 0 1-2 2h-4a2 2 0 0 1-2-2V10c0-2-2-2-2-4V2h12z" />
    <line x1="6" x2="18" y1="6" y2="6" />
    <line x1="12" x2="12" y1="12" y2="12" />
  </g>
  <g id="flashlight-off" transform="translate(0 40)">
    <rect id="flashlight-off bounds" width="24" height="24" fill="none" stroke="none" />
    <path d="M16 16v4a2 2 0 0 1-2 2h-4a2 2 0 0 1-2-2V10c0-2-2-2-2-4" />
    <path d="M7 2h11v4c0 2-2 2-2 4v1" />
    <line x1="11" x2="18" y1="6" y2="6" />
    <line x1="2" x2="22" y1="2" y2="22" />
  </g>
  <g id="focus" transform="translate(40 40)">
    <rect id="focus bounds" width="24" height="24" fill="none" stroke="none" />
    <circle cx="12" cy="12" r="3" />
    <path d="M3 7V5a2 2 0 0 1 2-2h2" />
    <path d="M17 3h2a2 2 0 0 1 2 2v2" />
    <path d="M21 17v2a2 2 0 0 1-2 2h-2" />
    <path d="M7 21H5a2 2 0 0 1-2-2v-2" />
  </g>
  <g id="frame" transform="translate(80 40)">
    <rect id="frame bounds" width="24" height="24" fill="none" stroke="none" />
    <line x1="22" x2="2" y1="6" y2="6" />
    <line x1="22" x2="2" y1="18" y2="18" />
    <line x1="6" x2="6" y1="2" y2="22" />
    <line x1="18" x2="18" y1="2" y2="22" />
  </g>
  <g id="fullscreen" transform="translate(120 40)">
    <rect id="fullscreen bounds" width="24" height="24" fill="none" stroke="none" />
    <path d="M3 7V5a2 2 0 0 1 2-2h2" />
    <path d="M17 3h2a2 2 0 0 1 2 2v2" />
    <path d="M21 17v2a2 2 0 0 1-2 2h-2" />
    <path d="M7 21H5a2 2 0 0 1-2-2v-2" />
    <rect width="10" height="8" x="7" y="8" rx="1" />
  </g>
  <g id="gallery-horizontal" transform="translate(160 40)">
    <rect id="gallery-horizontal bounds" width="24" height="24" fill="none" stroke="none" />
    <path d="M2 3v18" />
    <rect width="12" height="18" x="6" y="3" rx="2" />
    <path d="M22 3v18" />
  </g>
  <g id="gallery-horizontal-end" transform="translate(200 40)">
    <rect id="gallery-horizontal-end bounds" width="24" height="24" fill="none" stroke="none" />
    <path d="M2 7v10" />
    <path d="M6 5v14" />
    <rect width="12" height="18" x="10" y="3" rx="2" />
  </g>
  <g id="gallery-thumbnails" transform="translate(240 40)">
    <rect id="gallery-thumbnails bounds" width="24" height="24" fill="none" stroke="none" />
    <rect width="18" height="14" x="3" y="3" rx="2" />
    <path d="M4 21h1" />
    <path d="M9 21h1" />
    <path d="M14 21h1" />
    <path d="M19 21h1" />
  </g>
  <g id="gallery-vertical" transform="translate(280 40)">
    <rect id="gallery-vertical bounds" width="24" height="24" fill="none" stroke="none" />
    <path d="M3 2h18" />
    <rect width="18" height="12" x="3" y="6" rx="2" />
    <path d="M3 22h18" />
  </g>
  <g id="gallery-vertical-end" transform="translate(320 40)">
    <rect id="gallery-vertical-end bounds" width="24" height="24" fill="none" stroke="none" />
    <path d="M7 2h10" />
    <path d="M5 6h14" />
    <rect width="18" height="12" x="3" y="10" rx="2" />
  </g>
  <g id="image" transform="translate(360 40)">
    <rect id="image bounds" width="24" height="24" fill="none" stroke="none" />
    <rect width="18" height="18" x="3" y="3" rx="2" ry="2" />
    <circle cx="9" cy="9" r="2" />
    <path d="m21 15-3.086-3.086a2 2 0 0 0-2.828 0L6 21" />
  </g>
  <g id="image-down" transform="translate(400 40)">
    <rect id="image-down bounds" width="24" height="24" fill="none" stroke="none" />
    <path d="M10.3 21H5a2 2 0 0 1-2-2V5a2 2 0 0 1 2-2h14a2 2 0 0 1 2 2v10l-3.1-3.1a2 2 0 0 0-2.814.014L6 21" />
    <path d="m14 19 3 3v-5.5" />
    <path d="m17 22 3-3" />
    <circle cx="9" cy="9" r="2" />
  </g>
  <g id="image-minus" transform="translate(440 40)">
    <rect id="image-minus bounds" width="24" height="24" fill="none" stroke="none" />
    <path d="M21 9v10a2 2 0 0 1-2 2H5a2 2 0 0 1-2-2V5a2 2 0 0 1 2-2h7" />
    <line x1="16" x2="22" y1="5" y2="5" />
    <circle cx="9" cy="9" r="2" />
    <path d="m21 15-3.086-3.086a2 2 0 0 0-2.828 0L6 21" />
  </g>
  <g id="image-off" transform="translate(480 40)">
    <rect id="image-off bounds" width="24" height="24" fill="none" stroke="none" />
    <line x1="2" x2="22" y1="2" y2="22" />
    <path d="M10.41 10.41a2 2 0 1 1-2.83-2.83" />
    <line x1="13.5" x2="6" y1="13.5" y2="21" />
    <line x1="18" x2="21" y1="12" y2="15" />
    <path d="M3.59 3.59A1.99 1.99 0 0 0 3 5v14a2 2 0 0 0 2 2h14c.55 0 1.052-.22 1.41-.59" />
    <path d="M21 15V5a2 2 0 0 0-2-2H9" />
  </g>
  <g id="image-play" transform="translate(520 40)">
    <rect id="image-play bounds" width="24" height="24" fill="none" stroke="none" />
    <path d="m11 16-5 5" />
    <path d="M11 21H5a2 2 0 0 1-2-2V5a2 2 0 0 1 2-2h14a2 2 0 0 1 2 2v6.5" />
    <path d="M15.765 22a.5.5 0 0 1-.765-.424V13.38a.5.5 0 0 1 .765-.424l5.878 3.674a1 1 0 0 1 0 1.696z" />
    <circle cx="9" cy="9" r="2" />
  </g>
  <g id="image-plus" transform="translate(560 40)">
    <rect id="image-plus bounds" width="24" height="24" fill="none" stroke="none" />
    <path d="M16 5h6" />
    <path d="M19 2v6" />
    <path d="M21 11.5V19a2 2 0 0 1-2 2H5a2 2 0 0 1-2-2V5a2 2 0 0 1 2-2h7.5" />
    <path d="m21 15-3.086-3.086a2 2 0 0 0-2.828 0L6 21" />
    <circle cx="9" cy="9" r="2" />
  </g>
  <g id="image-up" transform="translate(600 40)">
    <rect id="image-up bounds" width="24" height="24" fill="none" stroke="none" />
    <path d="M10.3 21H5a2 2 0 0 1-2-2V5a2 2 0 0 1 2-2h14a2 2 0 0 1 2 2v10l-3.1-3.1a2 2 0 0 0-2.814.014L6 21" />
    <path d="m14 19.5 3-3 3 3" />
    <path d="M17 22v-5.5" />
    <circle cx="9" cy="9" r="2" />
  </g>
  <g id="image-upscale" transform="translate(640 40)">
    <rect id="image-upscale bounds" width="24" height="24" fill="none" stroke="none" />
    <path d="M16 3h5v5" />
    <path d="M17 21h2a2 2 0 0 0 2-2" />
    <path d="M21 12v3" />
    <path d="m21 3-5 5" />
    <path d="M3 7V5a2 2 0 0 1 2-2" />
    <path d="m5 21 4.144-4.144a1.21 1.21 0 0 1 1.712 0L13 19" />
    <path d="M9 3h3" />
    <rect x="3" y="11" width="10" height="10" rx="1" />
  </g>
  <g id="images" transform="translate(680 40)">
    <rect id="images bounds" width="24" height="24" fill="none" stroke="none" />
    <path d="M18 22H4a2 2 0 0 1-2-2V6" />
    <path d="m22 13-1.296-1.296a2.41 2.41 0 0 0-3.408 0L11 18" />
    <circle cx="12" cy="8" r="2" />
    <rect width="16" height="16" x="6" y="2" rx="2" />
  </g>
  <g id="layout-list" transform="translate(720 40)">
    <rect id="layout-list bounds" width="24" height="24" fill="none" stroke="none" />
    <rect width="7" height="7" x="3" y="3" rx="1" />
    <rect width="7" height="7" x="3" y="14" rx="1" />
    <path d="M14 4h7" />
    <path d="M14 9h7" />
    <path d="M14 15h7" />
    <path d="M14 20h7" />
  </g>
  <g id="library" transform="translate(760 40)">
    <rect id="library bounds" width="24" height="24" fill="none" stroke="none" />
    <path d="m16 6 4 14" />
    <path d="M12 6v14" />
    <path d="M8 8v12" />
    <path d="M4 4v16" />
  </g>
  <g id="library-big" transform="translate(0 80)">
    <rect id="library-big bounds" width="24" height="24" fill="none" stroke="none" />
    <rect width="8" height="18" x="3" y="3" rx="1" />
    <path d="M7 3v18" />
    <path d="M20.4 18.9c.2.5-.1 1.1-.6 1.3l-1.9.7c-.5.2-1.1-.1-1.3-.6L11.1 5.1c-.2-.5.1-1.1.6-1.3l1.9-.7c.5-.2 1.1.1 1.3.6Z" />
  </g>
  <g id="lightbulb" transform="translate(40 80)">
    <rect id="lightbulb bounds" width="24" height="24" fill="none" stroke="none" />
    <path d="M15 14c.2-1 .7-1.7 1.5-2.5 1-.9 1.5-2.2 1.5-3.5A6 6 0 0 0 6 8c0 1 .2 2.2 1.5 3.5.7.7 1.3 1.5 1.5 2.5" />
    <path d="M9 18h6" />
    <path d="M10 22h4" />
  </g>
  <g id="lightbulb-off" transform="translate(80 80)">
    <rect id="lightbulb-off bounds" width="24" height="24" fill="none" stroke="none" />
    <path d="M16.8 11.2c.8-.9 1.2-2 1.2-3.2a6 6 0 0 0-9.3-5" />
    <path d="m2 2 20 20" />
    <path d="M6.3 6.3a4.67 4.67 0 0 0 1.2 5.2c.7.7 1.3 1.5 1.5 2.5" />
    <path d="M9 18h6" />
    <path d="M10 22h4" />
  </g>
  <g id="paintbrush" transform="translate(120 80)">
    <rect id="paintbrush bounds" width="24" height="24" fill="none" stroke="none" />
    <path d="m14.622 17.897-10.68-2.913" />
    <path d="M18.376 2.622a1 1 0 1 1 3.002 3.002L17.36 9.643a.5.5 0 0 0 0 .707l.944.944a2.41 2.41 0 0 1 0 3.408l-.944.944a.5.5 0 0 1-.707 0L8.354 7.348a.5.5 0 0 1 0-.707l.944-.944a2.41 2.41 0 0 1 3.408 0l.944.944a.5.5 0 0 0 .707 0z" />
    <path d="M9 8c-1.804 2.71-3.97 3.46-6.583 3.948a.507.507 0 0 0-.302.819l7.32 8.883a1 1 0 0 0 1.185.204C12.735 20.405 16 16.792 16 15" />
  </g>
  <g id="paintbrush-vertical" transform="translate(160 80)">
    <rect id="paintbrush-vertical bounds" width="24" height="24" fill="none" stroke="none" />
    <path d="M10 2v2" />
    <path d="M14 2v4" />
    <path d="M17 2a1 1 0 0 1 1 1v9H6V3a1 1 0 0 1 1-1z" />
    <path d="M6 12a1 1 0 0 0-1 1v1a2 2 0 0 0 2 2h2a1 1 0 0 1 1 1v2.9a2 2 0 1 0 4 0V17a1 1 0 0 1 1-1h2a2 2 0 0 0 2-2v-1a1 1 0 0 0-1-1" />
  </g>
  <g id="palette" transform="translate(200 80)">
    <rect id="palette bounds" width="24" height="24" fill="none" stroke="none" />
    <path d="M12 22a1 1 0 0 1 0-20 10 9 0 0 1 10 9 5 5 0 0 1-5 5h-2.25a1.75 1.75 0 0 0-1.4 2.8l.3.4a1.75 1.75 0 0 1-1.4 2.8z" />
    <circle cx="13.5" cy="6.5" r=".5" fill="currentColor" />
    <circle cx="17.5" cy="10.5" r=".5" fill="currentColor" />
    <circle cx="6.5" cy="12.5" r=".5" fill="currentColor" />
    <circle cx="8.5" cy="7.5" r=".5" fill="currentColor" />
  </g>
  <g id="presentation" transform="translate(240 80)">
    <rect id="presentation bounds" width="24" height="24" fill="none" stroke="none" />
    <path d="M2 3h20" />
    <path d="M21 3v11a2 2 0 0 1-2 2H5a2 2 0 0 1-2-2V3" />
    <path d="m7 21 5-5 5 5" />
  </g>
  <g id="projector" transform="translate(280 80)">
    <rect id="projector bounds" width="24" height="24" fill="none" stroke="none" />
    <path d="M5 7 3 5" />
    <path d="M9 6V3" />
    <path d="m13 7 2-2" />
    <circle cx="9" cy="13" r="3" />
    <path d="M11.83 12H20a2 2 0 0 1 2 2v4a2 2 0 0 1-2 2H4a2 2 0 0 1-2-2v-4a2 2 0 0 1 2-2h2.17" />
    <path d="M16 16h2" />
  </g>
  <g id="proportions" transform="translate(320 80)">
    <rect id="proportions bounds" width="24" height="24" fill="none" stroke="none" />
    <rect width="20" height="16" x="2" y="4" rx="2" />
    <path d="M12 9v11" />
    <path d="M2 9h13a2 2 0 0 1 2 2v9" />
  </g>
  <g id="ratio" transform="translate(360 80)">
    <rect id="ratio bounds" width="24" height="24" fill="none" stroke="none" />
    <rect width="12" height="20" x="6" y="2" rx="2" />
    <rect width="20" height="12" x="2" y="6" rx="2" />
  </g>
  <g id="rotate-ccw" transform="translate(400 80)">
    <rect id="rotate-ccw bounds" width="24" height="24" fill="none" stroke="none" />
    <path d="M3 12a9 9 0 1 0 9-9 9.75 9.75 0 0 0-6.74 2.74L3 8" />
    <path d="M3 3v5h5" />
  </g>
  <g id="rotate-ccw-square" transform="translate(440 80)">
    <rect id="rotate-ccw-square bounds" width="24" height="24" fill="none" stroke="none" />
    <path d="M20 9V7a2 2 0 0 0-2-2h-6" />
    <path d="m15 2-3 3 3 3" />
    <path d="M20 13v5a2 2 0 0 1-2 2H6a2 2 0 0 1-2-2V7a2 2 0 0 1 2-2h2" />
  </g>
  <g id="rotate-cw" transform="translate(480 80)">
    <rect id="rotate-cw bounds" width="24" height="24" fill="none" stroke="none" />
    <path d="M21 12a9 9 0 1 1-9-9c2.52 0 4.93 1 6.74 2.74L21 8" />
    <path d="M21 3v5h-5" />
  </g>
  <g id="rotate-cw-square" transform="translate(520 80)">
    <rect id="rotate-cw-square bounds" width="24" height="24" fill="none" stroke="none" />
    <path d="M12 5H6a2 2 0 0 0-2 2v3" />
    <path d="m9 8 3-3-3-3" />
    <path d="M4 14v4a2 2 0 0 0 2 2h12a2 2 0 0 0 2-2V7a2 2 0 0 0-2-2h-2" />
  </g>
  <g id="scan-eye" transform="translate(560 80)">
    <rect id="scan-eye bounds" width="24" height="24" fill="none" stroke="none" />
    <path d="M3 7V5a2 2 0 0 1 2-2h2" />
    <path d="M17 3h2a2 2 0 0 1 2 2v2" />
    <path d="M21 17v2a2 2 0 0 1-2 2h-2" />
    <path d="M7 21H5a2 2 0 0 1-2-2v-2" />
    <circle cx="12" cy="12" r="1" />
    <path d="M18.944 12.33a1 1 0 0 0 0-.66 7.5 7.5 0 0 0-13.888 0 1 1 0 0 0 0 .66 7.5 7.5 0 0 0 13.888 0" />
  </g>
  <g id="scan-search" transform="translate(600 80)">
    <rect id="scan-search bounds" width="24" height="24" fill="none" stroke="none" />
    <path d="M3 7V5a2 2 0 0 1 2-2h2" />
    <path d="M17 3h2a2 2 0 0 1 2 2v2" />
    <path d="M21 17v2a2 2 0 0 1-2 2h-2" />
    <path d="M7 21H5a2 2 0 0 1-2-2v-2" />
    <circle cx="12" cy="12" r="3" />
    <path d="m16 16-1.9-1.9" />
  </g>
  <g id="square-library" transform="translate(640 80)">
    <rect id="square-library bounds" width="24" height="24" fill="none" stroke="none" />
    <rect width="18" height="18" x="3" y="3" rx="2" />
    <path d="M7 7v10" />
    <path d="M11 7v10" />
    <path d="m15 7 2 10" />
  </g>
  <g id="swatch-book" transform="translate(680 80)">
    <rect id="swatch-book bounds" width="24" height="24" fill="none" stroke="none" />
    <path d="M11 17a4 4 0 0 1-8 0V5a2 2 0 0 1 2-2h4a2 2 0 0 1 2 2Z" />
    <path d="M16.7 13H19a2 2 0 0 1 2 2v4a2 2 0 0 1-2 2H7" />
    <path d="M 7 17h.01" />
    <path d="m11 8 2.3-2.3a2.4 2.4 0 0 1 3.404.004L18.6 7.6a2.4 2.4 0 0 1 .026 3.434L9.9 19.8" />
  </g>
  <g id="video" transform="translate(720 80)">
    <rect id="video bounds" width="24" height="24" fill="none" stroke="none" />
    <path d="m16 13 5.223 3.482a.5.5 0 0 0 .777-.416V7.87a.5.5 0 0 0-.752-.432L16 10.5" />
    <rect x="2" y="6" width="14" height="12" rx="2" />
  </g>
  <g id="video-off" transform="translate(760 80)">
    <rect id="video-off bounds" width="24" height="24" fill="none" stroke="none" />
    <path d="M10.66 6H14a2 2 0 0 1 2 2v2.5l5.248-3.062A.5.5 0 0 1 22 7.87v8.196" />
    <path d="M16 16a2 2 0 0 1-2 2H4a2 2 0 0 1-2-2V8a2 2 0 0 1 2-2h2" />
    <path d="m2 2 20 20" />
  </g>
  <g id="videotape" transform="translate(0 120)">
    <rect id="videotape bounds" width="24" height="24" fill="none" stroke="none" />
    <rect width="20" height="16" x="2" y="4" rx="2" />
    <path d="M2 8h20" />
    <circle cx="8" cy="14" r="2" />
    <path d="M8 12h8" />
    <circle cx="16" cy="14" r="2" />
  </g>
  <g id="view" transform="translate(40 120)">
    <rect id="view bounds" width="24" height="24" fill="none" stroke="none" />
    <path d="M21 17v2a2 2 0 0 1-2 2H5a2 2 0 0 1-2-2v-2" />
    <path d="M21 7V5a2 2 0 0 0-2-2H5a2 2 0 0 0-2 2v2" />
    <circle cx="12" cy="12" r="1" />
    <path d="M18.944 12.33a1 1 0 0 0 0-.66 7.5 7.5 0 0 0-13.888 0 1 1 0 0 0 0 .66 7.5 7.5 0 0 0 13.888 0" />
  </g>
  <g id="wand" transform="translate(80 120)">
    <rect id="wand bounds" width="24" height="24" fill="none" stroke="none" />
    <path d="M15 4V2" />
    <path d="M15 16v-2" />
    <path d="M8 9h2" />
    <path d="M20 9h2" />
    <path d="M17.8 11.8 19 13" />
    <path d="M15 9h.01" />
    <path d="M17.8 6.2 19 5" />
    <path d="m3 21 9-9" />
    <path d="M12.2 6.2 11 5" />
  </g>
  <g id="wand-sparkles" transform="translate(120 120)">
    <rect id="wand-sparkles bounds" width="24" height="24" fill="none" stroke="none" />
    <path d="m21.64 3.64-1.28-1.28a1.21 1.21 0 0 0-1.72 0L2.36 18.64a1.21 1.21 0 0 0 0 1.72l1.28 1.28a1.2 1.2 0 0 0 1.72 0L21.64 5.36a1.2 1.2 0 0 0 0-1.72" />
    <path d="m14 7 3 3" />
    <path d="M5 6v4" />
    <path d="M19 14v4" />
    <path d="M10 2v2" />
    <path d="M7 8H3" />
    <path d="M21 16h-4" />
    <path d="M11 3H9" />
  </g>
  <g id="zap" transform="translate(160 120)">
    <rect id="zap bounds" width="24" height="24" fill="none" stroke="none" />
    <path d="M4 14a1 1 0 0 1-.78-1.63l9.9-10.2a.5.5 0 0 1 .86.46l-1.92 6.02A1 1 0 0 0 13 10h7a1 1 0 0 1 .78 1.63l-9.9 10.2a.5.5 0 0 1-.86-.46l1.92-6.02A1 1 0 0 0 11 14z" />
  </g>
  <g id="zap-off" transform="translate(200 120)">
    <rect id="zap-off bounds" width="24" height="24" fill="none" stroke="none" />
    <path d="M10.513 4.856 13.12 2.17a.5.5 0 0 1 .86.46l-1.377 4.317" />
    <path d="M15.656 10H20a1 1 0 0 1 .78 1.63l-1.72 1.773" />
    <path d="M16.273 16.273 10.88 21.83a.5.5 0 0 1-.86-.46l1.92-6.02A1 1 0 0 0 11 14H4a1 1 0 0 1-.78-1.63l4.507-4.643" />
    <path d="m2 2 20 20" />
  </g>
  <g id="zoom-in" transform="translate(240 120)">
    <rect id="zoom-in bounds" width="24" height="24" fill="none" stroke="none" />
    <circle cx="11" cy="11" r="8" />
    <line x1="21" x2="16.65" y1="21" y2="16.65" />
    <line x1="11" x2="11" y1="8" y2="14" />
    <line x1="8" x2="14" y1="11" y2="11" />
  </g>
  <g id="zoom-out" transform="translate(280 120)">
    <rect id="zoom-out bounds" width="24" height="24" fill="none" stroke="none" />
    <circle cx="11" cy="11" r="8" />
    <line x1="21" x2="16.65" y1="21" y2="16.65" />
    <line x1="8" x2="14" y1="11" y2="11" />
  </g>
</svg>
